# xmcd
# 
# Track frame offsets:
#     150
#     26385
#     49532
#     68227
#     87232
#     106919
#     123355
#     145327
#     170840
#     188054
#     209769
#     227820
#     248571
#     271729
# 
# Disc length: 3893
# 
# Revision: 8
# Processed by: cddbd v1.5.2PL0 Copyright (c) Steve Scherf et al.
# Submitted via: fre:ac v1.0.31
# 
DISCID=c10f330e
DTITLE=Chris Rea - Blue Guitars - [10 Latin Blues]
DYEAR=2005
DGENRE=Blues
TTITLE0=Hey Gringo
TTITLE1=Immigration Blues
TTITLE2=Still Trying To Clear My Name
TTITLE3=Sun Is Hot
TTITLE4=Screw You And Your Deep Blue Sea
TTITLE5=Nothing Seems To Matter No More
TTITLE6=Sometimes
TTITLE7=Lampiou
TTITLE8=Keep On Dancing
TTITLE9=Lucifer's Angel
TTITLE10=How I Know It's You
TTITLE11=Forever
TTITLE12=You Got Soul
TTITLE13=Bajan Blue
EXTD=CD 2005 - CD 10/11\nJazzee Blue/EarBooks - edel records 9 783937 406329
EXTT0=
EXTT1=
EXTT2=
EXTT3=
EXTT4=
EXTT5=
EXTT6=
EXTT7=
EXTT8=
EXTT9=
EXTT10=
EXTT11=
EXTT12=
EXTT13=
PLAYORDER=
